<svg xmlns="http://www.w3.org/2000/svg" width="64" height="64" viewBox="0 0 64 64" role="img" aria-label="Barrel, 1 tile">
  <rect width="64" height="64" fill="none"/>
  <g stroke-linejoin="round" stroke-linecap="round">
    <ellipse cx="32" cy="16" rx="19" ry="10" fill="#6b472d" stroke="#1e1516" stroke-width="3"/>
    <path d="M13 16 C10 27 10 39 13 50 C23 57 41 57 51 50 C54 39 54 27 51 16 C42 23 22 23 13 16Z" fill="#7b5131" stroke="#1e1516" stroke-width="3"/>
    <ellipse cx="32" cy="50" rx="19" ry="9" fill="#5a3928" stroke="#1e1516" stroke-width="3"/>
    <path d="M17 22 C27 27 37 27 47 22 M15 43 C26 49 38 49 49 43" fill="none" stroke="#2a2020" stroke-width="3"/>
    <path d="M18 16 C16 27 16 39 18 50 M46 16 C48 27 48 39 46 50" fill="none" stroke="#3c2b28" stroke-width="3"/>
    <path d="M18 27 H46 M17 39 H47" stroke="#202025" stroke-width="4"/>
    <ellipse cx="32" cy="16" rx="12" ry="5" fill="#2b1e1b" stroke="#9a6c38" stroke-width="3"/>
  </g>
</svg>
