<svg xmlns="http://www.w3.org/2000/svg" width="144" height="160" viewBox="0 0 144 160">
  <ellipse cx="72" cy="145" rx="49" ry="8" fill="#090a0d" opacity=".36"/>
  <path d="M14 65 L72 17 L130 65 Z" fill="#16131b"/>
  <path d="M20 140 V62 L72 24 L124 62 V140 Z
           M59 106 C59 91 85 91 85 106 V142 H59 Z
           M38 89 C38 78 55 78 55 89 V111 H38 Z
           M89 89 C89 78 106 78 106 89 V111 H89 Z" fill="#383541" fill-rule="evenodd"/>
  <path d="M33 133 V68 L72 40 L111 68 V133 Z
           M59 106 C59 91 85 91 85 106 V142 H59 Z
           M38 89 C38 78 55 78 55 89 V111 H38 Z
           M89 89 C89 78 106 78 106 89 V111 H89 Z" fill="#484451" fill-rule="evenodd"/>
  <path d="M56 58 V26 L72 7 L88 26 V58 Z
           M64 39 A8 8 0 1 0 80 39 A8 8 0 1 0 64 39 Z" fill="#25212b" fill-rule="evenodd"/>
  <path d="M55 27 L72 1 L89 27 Z" fill="#120f17"/>
  <path d="M72 18 V42 M61 30 H83" stroke="#9c415f" stroke-width="4" stroke-linecap="round"/>
  <path d="M59 106 C59 91 85 91 85 106 V142 H59 Z" fill="#090a0d"/>
  <path d="M38 89 C38 78 55 78 55 89 V111 H38 Z
           M89 89 C89 78 106 78 106 89 V111 H89 Z" fill="#0a0b0f"/>
  <path d="M59 106 C61 88 83 88 85 106" fill="none" stroke="#211820" stroke-width="3"/>
  <path d="M46 88 V111 M38 100 H55 M98 88 V111 M89 100 H106" stroke="#17151a" stroke-width="2"/>
  <path d="M28 77 H116 M28 128 H116" stroke="#69616f" stroke-width="2" opacity=".65"/>
</svg>
