<svg xmlns="http://www.w3.org/2000/svg" width="48" height="84" viewBox="0 0 48 84" role="img" aria-label="Captain Adrian Voss NPC sprite">
  <defs>
    <linearGradient id="coat" x1="0" y1="0" x2="0" y2="1">
      <stop offset="0" stop-color="#2b2d27"/>
      <stop offset="1" stop-color="#0b0d0d"/>
    </linearGradient>
    <linearGradient id="blue" x1="0" y1="0" x2="0" y2="1">
      <stop offset="0" stop-color="#24323d"/>
      <stop offset="1" stop-color="#0d151b"/>
    </linearGradient>
  </defs>

  <!-- ground shadow -->
  <ellipse cx="24" cy="77" rx="16" ry="4.5" fill="#050506" opacity=".62"/>

  <!-- rear coat silhouette -->
  <path d="M11 38 C12 31 15 27 19 26 H29 C33 27 36 31 37 38 L40 67 C35 72 13 72 8 67 Z" fill="#070808"/>
  <path d="M12 38 C14 31 17 28 21 28 H27 C31 28 34 31 36 38 L38 65 C35 69 13 69 10 65 Z" fill="url(#coat)"/>

  <!-- long coat sides -->
  <path d="M13 39 C10 47 9 56 9 68 C11 70 15 70 18 68 C17 57 17 47 19 38 Z" fill="#181612"/>
  <path d="M35 39 C38 47 39 56 39 68 C37 70 33 70 30 68 C31 57 31 47 29 38 Z" fill="#181612"/>
  <path d="M15 39 C13 48 13 58 14 68" fill="none" stroke="#8c6c2d" stroke-width="1" opacity=".65"/>
  <path d="M33 39 C35 48 35 58 34 68" fill="none" stroke="#8c6c2d" stroke-width="1" opacity=".65"/>

  <!-- legs and boots -->
  <path d="M18 62 C18 67 17.5 71 17 75" fill="none" stroke="#0a0b0c" stroke-width="3.2" stroke-linecap="round"/>
  <path d="M30 62 C30 67 30.5 71 31 75" fill="none" stroke="#0a0b0c" stroke-width="3.2" stroke-linecap="round"/>
  <path d="M13 75 C16 72.8 20 72.8 22 75 C20 77.2 15.5 77.2 13 75 Z" fill="#060708"/>
  <path d="M26 75 C28 72.8 32 72.8 35 75 C32.5 77.2 28 77.2 26 75 Z" fill="#060708"/>
  <path d="M15 74.5 C17 73.7 20 73.7 21.5 74.5" fill="none" stroke="#b58a35" stroke-width=".7" opacity=".7"/>
  <path d="M26.5 74.5 C28 73.7 31 73.7 33 74.5" fill="none" stroke="#b58a35" stroke-width=".7" opacity=".7"/>

  <!-- torso / waistcoat -->
  <path d="M17 35 C18 43 19 53 20 63 H28 C29 53 30 43 31 35 Z" fill="url(#blue)"/>
  <path d="M20 36 L24 63 L28 36 Z" fill="#11110f"/>
  <path d="M18 36 L12 46 L17 49 L21 38 Z" fill="#2a261d"/>
  <path d="M30 36 L36 46 L31 49 L27 38 Z" fill="#2a261d"/>
  <path d="M20 35 L24 39 L28 35" fill="none" stroke="#b78d3b" stroke-width="1.2" opacity=".85"/>
  <path d="M22 42 H28 M22 47 H28 M22 52 H28" stroke="#4a5660" stroke-width="1" opacity=".85"/>
  <circle cx="20.2" cy="44" r="1.1" fill="#b78d3b"/>
  <circle cx="28" cy="44" r="1.1" fill="#b78d3b"/>
  <circle cx="20.5" cy="51" r="1.1" fill="#b78d3b"/>
  <circle cx="27.6" cy="51" r="1.1" fill="#b78d3b"/>
  <path d="M14 35 L9 53" stroke="#3a3529" stroke-width="5" stroke-linecap="round"/>
  <path d="M34 35 L39 53" stroke="#3a3529" stroke-width="5" stroke-linecap="round"/>
  <path d="M10 53 C10 56 12 58 14 57" fill="none" stroke="#6e4b2b" stroke-width="3" stroke-linecap="round"/>
  <path d="M38 53 C38 56 36 58 34 57" fill="none" stroke="#6e4b2b" stroke-width="3" stroke-linecap="round"/>

  <!-- neck -->
  <path d="M20 29 H28 L27 36 C25 38 23 38 21 36 Z" fill="#7c5434"/>
  <path d="M20 32 C22 35 26 35 28 32" fill="none" stroke="#2d1d14" stroke-width="1" opacity=".6"/>

  <!-- head -->
  <path d="M15 19 C15 12 20 9 24 9 C28 9 33 12 33 19 C33 27 29 33 24 34 C19 33 15 27 15 19 Z" fill="#9b704b"/>
  <path d="M17 19 C18 14 21 12 24 12 C27 12 30 14 31 19 C31 25 28 30 24 31 C20 30 17 25 17 19 Z" fill="#b8865e"/>
  <path d="M16 20 C18 16 30 16 32 20 C30 18 19 18 16 20 Z" fill="#5b3a25" opacity=".55"/>

  <!-- ears -->
  <path d="M14.5 21 C12.8 22 13.1 26 15.1 26.2" fill="#8d6041"/>
  <path d="M33.5 21 C35.2 22 34.9 26 32.9 26.2" fill="#8d6041"/>

  <!-- beard, moustache, brows -->
  <path d="M17 26 C18 31 21 35 24 36 C27 35 30 31 31 26 C29 27 27 27 25 26 C24 29 24 29 23 26 C21 27 19 27 17 26 Z" fill="#34271d"/>
  <path d="M18 27 C20 31 22 33 24 34 C26 33 28 31 30 27" fill="none" stroke="#1c1714" stroke-width="1.2" opacity=".85"/>
  <path d="M18.5 24 C20 22 22 22 23 24" fill="none" stroke="#2a2018" stroke-width="1.3" stroke-linecap="round"/>
  <path d="M25 24 C26 22 28 22 29.5 24" fill="none" stroke="#2a2018" stroke-width="1.3" stroke-linecap="round"/>
  <path d="M20 29 C22 28 23 29 24 30 C25 29 26 28 28 29" fill="none" stroke="#5b3a22" stroke-width="1.4" stroke-linecap="round"/>

  <!-- eyes/nose/mouth -->
  <ellipse cx="20.5" cy="24.3" rx="1.2" ry=".8" fill="#101214"/>
  <ellipse cx="27.5" cy="24.3" rx="1.2" ry=".8" fill="#101214"/>
  <circle cx="20.9" cy="24" r=".32" fill="#e2c179" opacity=".9"/>
  <circle cx="27.9" cy="24" r=".32" fill="#e2c179" opacity=".9"/>
  <path d="M24.8 24 C25.4 26 25 27 23.5 27.4" fill="none" stroke="#6d4b34" stroke-width=".8" stroke-linecap="round"/>
  <path d="M22 31 C23.5 31.7 25 31.7 26.3 31" fill="none" stroke="#180f0b" stroke-width=".8" stroke-linecap="round"/>

  <!-- captain cap -->
  <path d="M14 16 C16 9 20 6 24 6 C28 6 32 9 34 16 C29 14 19 14 14 16 Z" fill="#151b21"/>
  <path d="M16 13 C18 8.5 30 8.5 32 13 C29 12 19 12 16 13 Z" fill="#2c3438"/>
  <path d="M13 17 C17 14 31 14 35 17 C33 19 15 19 13 17 Z" fill="#0a0d11"/>
  <path d="M15 17 C18 15.5 30 15.5 33 17 C30 18.8 18 18.8 15 17 Z" fill="#262e35"/>
  <path d="M17 14 C20 12.5 28 12.5 31 14" fill="none" stroke="#b78d3b" stroke-width="1" opacity=".9"/>
  <circle cx="18" cy="15.2" r="1" fill="#b78d3b"/>
  <path d="M24 10.8 v4.2 M22.5 12.2 h3 M22.9 15 C23.8 16 24.2 16 25.1 15" fill="none" stroke="#d2a33f" stroke-width="1.1" stroke-linecap="round"/>

  <!-- shoulders / epaulettes -->
  <path d="M13 35 C15 32 19 31 21 33 C19 35 15 36 13 35 Z" fill="#7b6129"/>
  <path d="M35 35 C33 32 29 31 27 33 C29 35 33 36 35 35 Z" fill="#7b6129"/>
  <path d="M14 34 C16 33 18 33 20 34" fill="none" stroke="#d0a64b" stroke-width=".8"/>
  <path d="M28 34 C30 33 32 33 34 34" fill="none" stroke="#d0a64b" stroke-width=".8"/>

  <!-- low resolution pixel highlights -->
  <rect x="18" y="20" width="2" height="2" fill="#c6986c" opacity=".55"/>
  <rect x="28" y="20" width="2" height="2" fill="#d0a175" opacity=".42"/>
  <rect x="22" y="16" width="5" height="1" fill="#dbc098" opacity=".32"/>
  <rect x="23" y="38" width="2" height="18" fill="#273744" opacity=".55"/>
  <rect x="11" y="44" width="2" height="10" fill="#64501f" opacity=".45"/>
  <rect x="35" y="44" width="2" height="10" fill="#64501f" opacity=".45"/>
</svg>
