<svg xmlns="http://www.w3.org/2000/svg" width="48" height="84" viewBox="0 0 48 84">
  <ellipse cx="24" cy="58" rx="15" ry="5" fill="#050506" opacity=".62"/>

  <path d="M10 58 C11 43 12 27 15 15 C18 7 30 7 33 15 C36 27 37 43 38 58 Z" fill="#07080d"/>
  <path d="M5 57 C8 38 10 20 17 13 C14 26 16 43 18 58 Z" fill="#111923"/>
  <path d="M43 57 C40 38 38 20 31 13 C34 26 32 43 30 58 Z" fill="#111923"/>
  <path d="M7 54 C10 39 12 24 17 15" fill="none" stroke="#d8b9ff" stroke-width="1.2" opacity=".82"/>
  <path d="M41 54 C38 39 36 24 31 15" fill="none" stroke="#d8b9ff" stroke-width="1.2" opacity=".82"/>

  <path d="M13 14 L7 1 L20 10 Z" fill="#05070b"/>
  <path d="M35 14 L41 1 L28 10 Z" fill="#05070b"/>
  <path d="M14 11 L10 4 L19 10 Z" fill="#56606f"/>
  <path d="M34 11 L38 4 L29 10 Z" fill="#56606f"/>
  <path d="M15 10 L11 5 M17 11 L12 3 M33 10 L37 5 M31 11 L36 3" stroke="#c8d1df" stroke-width=".8" opacity=".65"/>

  <path d="M14 20 C15 11 33 11 34 20 C31 16 17 16 14 20 Z" fill="#141b28"/>
  <path d="M16 21 C17 14 21 11 24 11 C27 11 31 14 32 21 C30 25 18 25 16 21 Z" fill="#f2efe7"/>
  <path d="M17 20 C18 15 30 15 31 20 C28 18 20 18 17 20 Z" fill="#d9d7d2"/>

  <path d="M15 21 C15 16 33 16 33 21 C33 27 30 33 24 34 C18 33 15 27 15 21 Z" fill="#cdbfc5"/>
  <path d="M16 21 C18 17 30 17 32 21 C31 26 28 31 24 32 C20 31 17 26 16 21 Z" fill="#d8ccd1"/>
  <path d="M17 20 C20 15 28 15 31 20 C27 18 21 18 17 20 Z" fill="#eef0f5"/>

  <path d="M14 20 C17 17 31 17 34 20 C32 22 16 22 14 20 Z" fill="#f1f3f8"/>
  <path d="M15 20 C17 18 31 18 33 20 C31 23 17 23 15 20 Z" fill="#cfd4dd"/>
  <path d="M17 18 C18 28 19 34 21 39" fill="none" stroke="#eef0f5" stroke-width="2.5" stroke-linecap="round"/>
  <path d="M31 18 C30 28 29 34 27 39" fill="none" stroke="#eef0f5" stroke-width="2.5" stroke-linecap="round"/>
  <path d="M19 18 C19 28 20 36 22 42" fill="none" stroke="#b9bdc9" stroke-width=".8" opacity=".9"/>
  <path d="M24 17 C24 28 24 36 24 43" fill="none" stroke="#aeb3c0" stroke-width=".8" opacity=".8"/>
  <path d="M29 18 C29 28 28 36 26 42" fill="none" stroke="#b9bdc9" stroke-width=".8" opacity=".9"/>
  <path d="M16 21 C19 19 30 19 32 21" fill="none" stroke="#ffffff" stroke-width=".9" opacity=".8"/>

  <path d="M17 25 C19 23 22 23 23 25" fill="none" stroke="#8b001b" stroke-width="1.5" stroke-linecap="round"/>
  <path d="M25 25 C27 23 30 23 32 25" fill="none" stroke="#8b001b" stroke-width="1.5" stroke-linecap="round"/>
  <ellipse cx="20.4" cy="25.4" rx="2.6" ry="2.1" fill="#f6f7ff"/>
  <ellipse cx="28.2" cy="25.4" rx="2.6" ry="2.1" fill="#f6f7ff"/>
  <circle cx="20.6" cy="25.4" r="1.55" fill="#1c6ab9"/>
  <circle cx="28.4" cy="25.4" r="1.55" fill="#1c6ab9"/>
  <circle cx="21.2" cy="24.7" r=".55" fill="#e9f6ff"/>
  <circle cx="29" cy="24.7" r=".55" fill="#e9f6ff"/>
  <path d="M18 29 C17 31 18 33 20 35" fill="none" stroke="#9c1830" stroke-width=".9" stroke-linecap="round" opacity=".85"/>
  <path d="M25 28 C25 29 24 30 23 30" fill="none" stroke="#6e5360" stroke-width=".8" stroke-linecap="round"/>
  <path d="M22 31 C23 32 25 32 26 31" fill="none" stroke="#65bca9" stroke-width="1.1" stroke-linecap="round"/>

  <path d="M17 35 C16 42 15 48 13 53 H35 C33 48 32 42 31 35 C29 40 19 40 17 35 Z" fill="#e6e4dd"/>
  <path d="M18 38 C21 41 27 41 30 38 L33 53 H15 Z" fill="#b9b8b7"/>
  <path d="M19 36 C20 44 21 50 24 54 C27 50 28 44 29 36" fill="#121318"/>
  <path d="M20 36 C21 43 22 49 24 53 C26 49 27 43 28 36" fill="none" stroke="#f3f0e8" stroke-width="1.3" opacity=".7"/>
  <path d="M18 38 L10 50 M30 38 L38 50" stroke="#d7d5ce" stroke-width="4.5" stroke-linecap="round"/>
  <path d="M18 40 L10 51 M30 40 L38 51" stroke="#111318" stroke-width="2" stroke-linecap="round" opacity=".28"/>
  <path d="M15 45 C17 43 19 45 19 48 C16 49 15 51 14 54 C11 51 12 47 15 45 Z" fill="#180b0f" opacity=".75"/>
  <path d="M31 44 C34 43 36 45 36 48 C34 50 33 52 33 55 C30 52 29 47 31 44 Z" fill="#180b0f" opacity=".75"/>
  <path d="M18 60 C18 64 17.5 68 17 71" fill="none" stroke="#0b0c10" stroke-width="2.5" stroke-linecap="round"/>
  <path d="M30 60 C30 64 30.5 68 31 71" fill="none" stroke="#0b0c10" stroke-width="2.5" stroke-linecap="round"/>
  <path d="M14 71 C16 69 20 69 22 71 C20 73 16 73 14 71 Z" fill="#08090d"/>
  <path d="M26 71 C28 69 32 69 34 71 C32 73 28 73 26 71 Z" fill="#08090d"/>
  <path d="M15 70 C17 69 20 69 22 70" fill="none" stroke="#f3f0e8" stroke-width=".75" opacity=".8"/>
  <path d="M26 70 C28 69 32 69 33 70" fill="none" stroke="#f3f0e8" stroke-width=".75" opacity=".8"/>
</svg>
