<svg xmlns="http://www.w3.org/2000/svg" width="320" height="192" viewBox="0 0 320 192" role="img" aria-label="Sail rig, 5 by 3 tiles">
  <rect width="320" height="192" fill="none"/>
  <g stroke-linejoin="round" stroke-linecap="round">
    <rect x="74" y="146" width="42" height="30" fill="#3a2b36" stroke="#161117" stroke-width="4"/>
    <rect x="86" y="34" width="18" height="116" fill="#38282d" stroke="#161117" stroke-width="4"/>
    <rect x="82" y="28" width="26" height="12" fill="#211920" stroke="#161117" stroke-width="3"/>
    <path d="M95 10 V35 M84 22 H106" stroke="#d4a148" stroke-width="7"/>
    <circle cx="95" cy="10" r="4" fill="#f2c75c" stroke="#1e1516" stroke-width="2"/>
    <rect x="226" y="124" width="22" height="42" fill="#3a2b36" stroke="#161117" stroke-width="4"/>
    <circle cx="237" cy="116" r="8" fill="#d4a148" stroke="#161117" stroke-width="3"/>
    <path d="M102 45 C142 70 191 94 238 114 C198 128 149 130 105 115 Z" fill="#efe8c9" stroke="#1e1516" stroke-width="4"/>
    <path d="M111 57 C148 79 188 98 226 114" stroke="#b7ad91" stroke-width="4" opacity="0.8"/>
    <path d="M117 85 C152 100 184 110 214 119" stroke="#b7ad91" stroke-width="3" opacity="0.65"/>
    <path d="M132 116 C157 119 185 120 214 116" stroke="#b7ad91" stroke-width="3" opacity="0.55"/>
    <path d="M105 115 L237 116" stroke="#2b2022" stroke-width="4"/>
    <path d="M95 150 H237" stroke="#6b472d" stroke-width="6"/>
    <rect x="230" y="111" width="14" height="18" fill="#2d2430" stroke="#161117" stroke-width="3"/>
  </g>
</svg>
