<svg xmlns="http://www.w3.org/2000/svg" width="96" height="96" viewBox="0 0 96 96" role="img" aria-label="Ship wheel, 1.5 tiles tall">
  <defs>
    <filter id="shadow" x="-20%" y="-20%" width="140%" height="140%"><feDropShadow dx="0" dy="2" stdDeviation="1.5" flood-color="#120d12" flood-opacity="0.55"/></filter>
  </defs>
  <rect width="96" height="96" fill="none"/>
  <g filter="url(#shadow)" stroke-linecap="round" stroke-linejoin="round">
    <rect x="39" y="68" width="18" height="16" fill="#5a3928" stroke="#1e1516" stroke-width="3"/>
    <rect x="34" y="82" width="28" height="8" fill="#8b6237" stroke="#1e1516" stroke-width="3"/>
    <g stroke="#c99a45" stroke-width="6">
      <line x1="48" y1="9" x2="48" y2="23"/><line x1="48" y1="73" x2="48" y2="87"/>
      <line x1="9" y1="48" x2="23" y2="48"/><line x1="73" y1="48" x2="87" y2="48"/>
      <line x1="20" y1="20" x2="30" y2="30"/><line x1="66" y1="66" x2="76" y2="76"/>
      <line x1="76" y1="20" x2="66" y2="30"/><line x1="30" y1="66" x2="20" y2="76"/>
    </g>
    <circle cx="48" cy="48" r="29" fill="#6f4a2f" stroke="#1e1516" stroke-width="4"/>
    <circle cx="48" cy="48" r="21" fill="#2a2225" stroke="#a77a3d" stroke-width="4"/>
    <g stroke="#9a6c38" stroke-width="5">
      <line x1="48" y1="27" x2="48" y2="69"/><line x1="27" y1="48" x2="69" y2="48"/>
      <line x1="33" y1="33" x2="63" y2="63"/><line x1="63" y1="33" x2="33" y2="63"/>
    </g>
    <circle cx="48" cy="48" r="8" fill="#c99a45" stroke="#1e1516" stroke-width="3"/>
    <circle cx="48" cy="9" r="4" fill="#f2c75c" stroke="#1e1516" stroke-width="2"/><circle cx="87" cy="48" r="4" fill="#f2c75c" stroke="#1e1516" stroke-width="2"/><circle cx="48" cy="87" r="4" fill="#f2c75c" stroke="#1e1516" stroke-width="2"/><circle cx="9" cy="48" r="4" fill="#f2c75c" stroke="#1e1516" stroke-width="2"/>
  </g>
</svg>
