<svg xmlns="http://www.w3.org/2000/svg" width="144" height="192" viewBox="0 0 144 192" role="img" aria-label="Small ship sail rig">
  <rect width="144" height="192" fill="none"/>
  <g stroke-linejoin="round" stroke-linecap="round">
    <rect x="18" y="151" width="34" height="27" fill="#3a2b36" stroke="#161117" stroke-width="4"/>
    <rect x="28" y="35" width="15" height="120" fill="#38282d" stroke="#161117" stroke-width="4"/>
    <rect x="24" y="29" width="23" height="11" fill="#211920" stroke="#161117" stroke-width="3"/>
    <path d="M35 11 V35 M25 23 H45" stroke="#d4a148" stroke-width="6"/>
    <circle cx="35" cy="10" r="4" fill="#f2c75c" stroke="#1e1516" stroke-width="2"/>
    <rect x="112" y="127" width="18" height="39" fill="#3a2b36" stroke="#161117" stroke-width="4"/>
    <circle cx="121" cy="119" r="7" fill="#d4a148" stroke="#161117" stroke-width="3"/>
    <path d="M42 47 C68 68 94 94 121 116 C96 130 70 132 43 116 Z" fill="#efe8c9" stroke="#1e1516" stroke-width="4"/>
    <path d="M49 59 C72 78 95 99 113 115" stroke="#b7ad91" stroke-width="3" opacity=".8"/>
    <path d="M53 87 C75 102 94 112 108 119" stroke="#b7ad91" stroke-width="3" opacity=".65"/>
    <path d="M43 116 L121 119" stroke="#2b2022" stroke-width="4"/>
    <path d="M35 155 H121" stroke="#6b472d" stroke-width="6"/>
  </g>
</svg>
